<svg xmlns="http://www.w3.org/2000/svg" xmlns:xlink="http://www.w3.org/1999/xlink" version="1.1" id="delivery" x="0px" y="0px" width="300" height="300" viewBox="0 0 512 512" enable-background="new 0 0 512 512" xml:space="preserve" xmlns:svgjs="http://svgjs.dev/svgjs"><g width="100%" height="100%" transform="matrix(1,0,0,1,0,0)"><path fill="#2c4170" d="M474.74,265.88v12.98h-15c-2.761,0-5,2.24-5,5v20c0,2.76,2.239,5,5,5h15v21.16h-39.4  c-0.07-0.49-0.15-0.98-0.24-1.461c-0.01-0.06-0.02-0.129-0.04-0.199c-0.1-0.49-0.2-0.98-0.319-1.471c-0.121-0.51-0.25-1.02-0.4-1.52  c-0.29-1.01-0.62-2-1-2.971c-0.13-0.33-0.26-0.67-0.4-0.989c-0.109-0.261-0.22-0.521-0.34-0.78c-0.17-0.359-0.34-0.72-0.51-1.07  c-0.45-0.92-0.939-1.81-1.471-2.68c-0.27-0.439-0.549-0.88-0.85-1.32c-0.25-0.379-0.51-0.75-0.77-1.109  c-1.25-1.711-2.641-3.301-4.17-4.76c-0.37-0.351-0.74-0.69-1.12-1.021c-0.39-0.34-0.78-0.66-1.181-0.979  c-0.359-0.291-0.72-0.57-1.09-0.84c-0.5-0.371-1.01-0.73-1.529-1.07c-0.351-0.23-0.711-0.461-1.08-0.68  c-0.48-0.301-0.971-0.58-1.461-0.851c-0.439-0.229-0.879-0.46-1.329-0.681c-0.061-0.029-0.12-0.06-0.181-0.09  c-0.359-0.17-0.72-0.34-1.08-0.5c-0.16-0.069-0.319-0.14-0.47-0.199c-0.37-0.16-0.739-0.311-1.11-0.45  c-0.489-0.19-0.979-0.36-1.479-0.53c-0.47-0.16-0.96-0.311-1.45-0.449c-0.02,0-0.04-0.011-0.05-0.011  c-0.42-0.12-0.84-0.229-1.271-0.33c-0.119-0.03-0.239-0.06-0.359-0.09c-0.09-0.021-0.18-0.04-0.27-0.06  c-0.28-0.07-0.561-0.131-0.851-0.18c-0.19-0.041-0.39-0.08-0.59-0.111c-0.021-0.01-0.04-0.01-0.07-0.01  c-0.409-0.08-0.83-0.14-1.25-0.199c-0.5-0.07-1.01-0.131-1.53-0.18c-0.05-0.011-0.1-0.011-0.149-0.021  c-0.45-0.04-0.92-0.07-1.38-0.091c-0.1-0.01-0.2-0.01-0.301-0.01c-0.5-0.029-1-0.039-1.5-0.039s-1,0.01-1.5,0.039  c-0.1,0-0.199,0-0.299,0.01c-0.461,0.021-0.931,0.051-1.381,0.091c-0.05,0.01-0.1,0.01-0.15,0.021  c-0.52,0.049-1.029,0.109-1.529,0.18c-0.45,0.06-0.891,0.129-1.33,0.209c0,0-0.01,0-0.02,0c-0.16,0.031-0.32,0.061-0.49,0.091  c-0.37,0.079-0.74,0.149-1.1,0.239c-0.121,0.021-0.24,0.051-0.36,0.08c-0.46,0.11-0.91,0.23-1.37,0.36  c-0.01,0-0.03,0.011-0.04,0.011c-0.431,0.119-0.87,0.26-1.3,0.399c-0.12,0.04-0.23,0.069-0.34,0.11  c-0.431,0.149-0.86,0.3-1.291,0.47c-0.369,0.14-0.739,0.29-1.109,0.45c-0.16,0.06-0.32,0.13-0.48,0.209  c-0.359,0.15-0.72,0.32-1.069,0.49c-1.021,0.49-2.011,1.03-2.98,1.621c-0.33,0.199-0.659,0.409-0.979,0.619  c-0.551,0.36-1.09,0.73-1.62,1.12c-0.78,0.58-1.54,1.19-2.271,1.83c-0.77,0.67-1.51,1.38-2.22,2.11c-0.75,0.779-1.46,1.6-2.13,2.439  c-0.29,0.36-0.561,0.711-0.83,1.08c-0.311,0.41-0.6,0.83-0.891,1.26c-0.289,0.44-0.569,0.881-0.85,1.32  c-0.26,0.43-0.51,0.87-0.75,1.311c-0.029,0.049-0.06,0.109-0.09,0.16c-0.22,0.399-0.43,0.799-0.63,1.209  c-0.17,0.351-0.34,0.711-0.51,1.07c-0.47,1.051-0.9,2.13-1.271,3.24c-0.16,0.449-0.3,0.91-0.43,1.369  c-0.03,0.101-0.061,0.191-0.08,0.291c-0.12,0.39-0.22,0.779-0.311,1.17c-0.109,0.449-0.209,0.91-0.31,1.359  c-0.05,0.26-0.1,0.521-0.14,0.771c-0.061,0.319-0.11,0.64-0.16,0.97c-0.02,0.07-0.03,0.15-0.04,0.221h-10.31V199.41h86.22  L474.74,265.88z" fill-opacity="1" data-original-color="#ffffffff" stroke="none" stroke-opacity="1" style=""/><path fill="#2c4170" d="M148.16,290.021h197.58v40h-86.58c-0.021-0.131-0.041-0.261-0.061-0.391c-0.05-0.33-0.109-0.67-0.17-1  c-0.04-0.27-0.1-0.54-0.15-0.811c-0.119-0.609-0.26-1.219-0.42-1.819c-0.149-0.58-0.31-1.149-0.49-1.72  c-0.109-0.37-0.239-0.75-0.369-1.11c-0.12-0.36-0.25-0.72-0.391-1.069c-0.939-2.451-2.14-4.781-3.569-6.94  c-0.101-0.16-0.21-0.31-0.311-0.46c-0.159-0.23-0.329-0.471-0.489-0.69c-0.19-0.271-0.38-0.53-0.58-0.79  c-0.59-0.779-1.21-1.539-1.87-2.27c-0.21-0.24-0.42-0.471-0.64-0.7c-0.211-0.229-0.431-0.46-0.66-0.681  c-0.221-0.219-0.44-0.449-0.67-0.67c-1.271-1.209-2.631-2.33-4.061-3.35c-0.34-0.24-0.689-0.48-1.04-0.71  c-0.49-0.33-0.979-0.63-1.479-0.93c-0.28-0.16-0.551-0.32-0.83-0.47c-0.37-0.211-0.74-0.41-1.12-0.61  c-0.33-0.17-0.65-0.33-0.98-0.479c-2.97-1.42-6.159-2.431-9.51-2.98c-0.34-0.07-0.68-0.12-1.03-0.16  c-0.409-0.061-0.819-0.109-1.229-0.15c-0.3-0.029-0.61-0.06-0.91-0.08c-0.22-0.02-0.45-0.039-0.67-0.039  c-0.7-0.051-1.4-0.07-2.11-0.07s-1.41,0.02-2.109,0.07c-0.221,0-0.45,0.02-0.67,0.039c-0.301,0.021-0.61,0.051-0.91,0.08  c-0.41,0.041-0.82,0.09-1.23,0.15c-0.37,0.05-0.74,0.1-1.109,0.17c-0.811,0.13-1.601,0.29-2.391,0.48  c-0.42,0.1-0.84,0.209-1.25,0.33c-0.58,0.16-1.17,0.33-1.74,0.529c-0.34,0.11-0.68,0.23-1.01,0.35  c-0.97,0.361-1.93,0.761-2.87,1.201c-0.25,0.109-0.5,0.229-0.739,0.359c-0.29,0.141-0.58,0.28-0.86,0.43  c-0.26,0.15-0.52,0.291-0.78,0.44c-0.27,0.149-0.54,0.3-0.8,0.46c-0.27,0.16-0.53,0.32-0.79,0.49c-0.43,0.26-0.85,0.539-1.26,0.83  c-0.37,0.25-0.73,0.51-1.09,0.779c-0.311,0.23-0.62,0.471-0.92,0.721c-0.851,0.67-1.67,1.39-2.46,2.14  c-0.351,0.33-0.69,0.67-1.021,1.021c-0.33,0.35-0.66,0.699-0.97,1.06c-1.021,1.13-1.96,2.33-2.82,3.58  c-0.13,0.19-0.26,0.39-0.39,0.59c-0.25,0.37-0.49,0.74-0.72,1.12c-0.301,0.5-0.591,1-0.87,1.51c-0.24,0.45-0.471,0.9-0.7,1.36  c-0.16,0.329-0.32,0.659-0.47,1c-0.11,0.239-0.221,0.489-0.32,0.739c-0.39,0.891-0.73,1.801-1.04,2.73  c-0.13,0.41-0.26,0.82-0.38,1.24c-0.01,0.02-0.021,0.029-0.01,0.04c-0.03,0.079-0.051,0.149-0.07,0.22  c-0.03,0.09-0.061,0.18-0.07,0.27c-0.109,0.381-0.21,0.761-0.3,1.141c-0.28,1.141-0.5,2.3-0.66,3.48h-39.39V290.021z" fill-opacity="1" data-original-color="#ffffffff" stroke="none" stroke-opacity="1" style=""/><rect x="464.74" y="288.86" fill="#f7ce4d" width="10" height="10" fill-opacity="1" data-original-color="#f7ce4dff" stroke="none" stroke-opacity="1" style=""/><path fill="#ee515a" d="M386.756,288.862h-16.019c-2.761,0-5-2.239-5-5c0-2.762,2.239-5,5-5h16.019c2.762,0,5,2.238,5,5  C391.756,286.623,389.518,288.862,386.756,288.862z" fill-opacity="1" data-original-color="#ee515aff" stroke="none" stroke-opacity="1" style=""/><rect x="232.12" y="142.53" fill="#2c4170" width="24.409" height="13.87" fill-opacity="1" data-original-color="#ffffffff" stroke="none" stroke-opacity="1" style=""/><path fill="#2c4170" d="M325.74,142.53v117.49h-53.961v-82.7h24.541c2.77,0,5-2.24,5-5v-29.79H325.74z" fill-opacity="1" data-original-color="#ffffffff" stroke="none" stroke-opacity="1" style=""/><path fill="#6bd1d9" d="M291.32,142.53v24.79h-19.541v-5.92c0-2.76-2.229-5-5-5h-0.25v-13.87H291.32z" fill-opacity="1" data-original-color="#6bd1d9ff" stroke="none" stroke-opacity="1" style=""/><path fill="#2c4170" d="M261.529,172.32v-5.92H237.37v29.79c0,2.76-2.24,5-5,5h-34.79c-2.76,0-5-2.24-5-5V166.4h-24.42v93.62h93.619  v-87.7H261.529z M246.77,250.021H209.94c-2.761,0-5-2.24-5-5c0-2.761,2.239-5,5-5h36.829c2.761,0,5,2.239,5,5  C251.77,247.78,249.53,250.021,246.77,250.021z M246.77,230.021H209.94c-2.761,0-5-2.24-5-5c0-2.761,2.239-5,5-5h36.829  c2.761,0,5,2.239,5,5C251.77,227.78,249.53,230.021,246.77,230.021z" fill-opacity="1" data-original-color="#ffffffff" stroke="none" stroke-opacity="1" style=""/><rect x="202.58" y="166.4" fill="#f7ce4d" width="24.79" height="24.79" fill-opacity="1" data-original-color="#f7ce4dff" stroke="none" stroke-opacity="1" style=""/><rect x="128.16" y="319.33" fill="#ee515a" width="10" height="10.69" fill-opacity="1" data-original-color="#ee515aff" stroke="none" stroke-opacity="1" style=""/><path fill="#10467c" d="M103.093,340.019H32.26c-2.761,0-5-2.238-5-5c0-2.761,2.239-5,5-5h70.833c2.761,0,5,2.239,5,5  C108.093,337.78,105.854,340.019,103.093,340.019z" fill-opacity="1" data-original-color="#10467cff" stroke="none" stroke-opacity="1" style=""/><path fill="#10467c" d="M103.093,319.327H52.5c-2.762,0-5-2.239-5-5c0-2.762,2.238-5,5-5h50.593c2.761,0,5,2.238,5,5  C108.093,317.088,105.854,319.327,103.093,319.327z" fill-opacity="1" data-original-color="#10467cff" stroke="none" stroke-opacity="1" style=""/><path fill="#10467c" d="M103.093,299.327H72.5c-2.762,0-5-2.239-5-5c0-2.762,2.238-5,5-5h30.593c2.761,0,5,2.238,5,5  C108.093,297.088,105.854,299.327,103.093,299.327z" fill-opacity="1" data-original-color="#10467cff" stroke="none" stroke-opacity="1" style=""/><path fill="#f9df9d" d="M251.77,245.021c0,2.76-2.239,5-5,5H209.94c-2.761,0-5-2.24-5-5c0-2.761,2.239-5,5-5h36.829  C249.53,240.021,251.77,242.26,251.77,245.021z" fill-opacity="1" data-original-color="#f9df9dff" stroke="none" stroke-opacity="1" style=""/><path fill="#f9df9d" d="M251.77,225.021c0,2.76-2.239,5-5,5H209.94c-2.761,0-5-2.24-5-5c0-2.761,2.239-5,5-5h36.829  C249.53,220.021,251.77,222.26,251.77,225.021z" fill-opacity="1" data-original-color="#f9df9dff" stroke="none" stroke-opacity="1" style=""/><path fill="#dff0e7" d="M310.738,250.02h-24.145c-2.762,0-5-2.239-5-5c0-2.762,2.238-5,5-5h24.145c2.762,0,5,2.238,5,5  C315.738,247.78,313.5,250.02,310.738,250.02z" fill-opacity="1" data-original-color="#dff0e7ff" stroke="none" stroke-opacity="1" style=""/><path fill="#dff0e7" d="M310.738,230.02h-24.145c-2.762,0-5-2.239-5-5c0-2.762,2.238-5,5-5h24.145c2.762,0,5,2.238,5,5  C315.738,227.78,313.5,230.02,310.738,230.02z" fill-opacity="1" data-original-color="#dff0e7ff" stroke="none" stroke-opacity="1" style=""/><path fill="#2c4170" d="M425.699,335.021c0,13.779-11.22,25-25,25c-13.789,0-25-11.221-25-25c0-13.791,11.211-25,25-25  C414.479,310.021,425.699,321.229,425.699,335.021z" fill-opacity="1" data-original-color="#ffffffff" stroke="none" stroke-opacity="1" style=""/><path fill="#ee515a" d="M400.696,355.019c-11.028,0-20-8.972-20-20s8.972-20,20-20s20,8.972,20,20S411.725,355.019,400.696,355.019z  " fill-opacity="1" data-original-color="#ee515aff" stroke="none" stroke-opacity="1" style=""/><polygon fill="#6bd1d9" points="459.483,268.862 432.634,214.406 370.737,214.406 370.737,268.862 " fill-opacity="1" data-original-color="#6bd1d9ff" stroke="none" stroke-opacity="1" style=""/><path fill="#10467c" d="M463.97,266.649L437.119,212.2c-0.84-1.71-2.579-2.79-4.489-2.79h-61.89c-2.761,0-5,2.24-5,5v54.45  c0,2.76,2.239,5,5,5h88.739c1.73,0,3.341-0.891,4.25-2.36C464.64,270.04,464.729,268.2,463.97,266.649z M375.74,263.86v-44.45  h53.779l21.92,44.45H375.74z" fill-opacity="1" data-original-color="#10467cff" stroke="none" stroke-opacity="1" style=""/><rect x="148.16" y="270.021" fill="#3ec688" width="197.58" height="10" fill-opacity="1" data-original-color="#3ec688ff" stroke="none" stroke-opacity="1" style=""/><path fill="#2c4170" d="M249.5,335.021c0,14.42-11.73,26.149-26.15,26.149S197.2,349.44,197.2,335.021s11.729-26.15,26.149-26.15  S249.5,320.601,249.5,335.021z" fill-opacity="1" data-original-color="#ffffffff" stroke="none" stroke-opacity="1" style=""/><path fill="#ee515a" d="M223.353,356.167c-11.661,0-21.148-9.487-21.148-21.148s9.487-21.148,21.148-21.148  s21.148,9.487,21.148,21.148S235.014,356.167,223.353,356.167z" fill-opacity="1" data-original-color="#ee515aff" stroke="none" stroke-opacity="1" style=""/><path fill="#10467c" d="M435.34,340.021h44.4c2.76,0,5-2.24,5-5V264.71c0-0.76-0.181-1.52-0.521-2.21l-34.66-70.31  c-0.85-1.7-2.58-2.78-4.489-2.78h-94.33c-2.761,0-5,2.23-5,5v65.61h-10V137.53c0-2.771-2.24-5-5-5H227.12c-2.76,0-5,2.229-5,5v18.87  h-58.96c-2.76,0-5,2.24-5,5v98.62h-15c-2.76,0-5,2.239-5,5v44.31h-15c-2.76,0-5,2.239-5,5v20.69c0,2.76,2.24,5,5,5h64.39  c1.93,13.89,11.79,25.289,24.84,29.449h-90.67c-2.76,0-5,2.24-5,5s2.24,5,5,5H479.74c2.76,0,5-2.24,5-5s-2.24-5-5-5h-72.86  C421.619,366.83,433.199,354.931,435.34,340.021z M138.16,330.021h-10v-10.69h10V330.021z M474.74,298.86h-10v-10h10V298.86z   M355.74,199.41h86.22l32.78,66.47v12.98h-15c-2.761,0-5,2.24-5,5v20c0,2.76,2.239,5,5,5h15v21.16h-39.4  c-0.07-0.49-0.15-0.98-0.24-1.461c-0.01-0.06-0.02-0.129-0.04-0.199c-0.1-0.49-0.2-0.98-0.319-1.471c-0.121-0.51-0.25-1.02-0.4-1.52  c-0.28-1.01-0.62-2-1-2.971c-0.13-0.33-0.26-0.67-0.4-0.989c-0.109-0.261-0.22-0.521-0.34-0.78c-0.17-0.359-0.34-0.72-0.51-1.07  c-0.45-0.92-0.939-1.81-1.471-2.68c-0.27-0.439-0.549-0.88-0.85-1.32c-0.25-0.379-0.51-0.75-0.77-1.109  c-1.25-1.711-2.641-3.301-4.17-4.76c-0.37-0.351-0.74-0.69-1.12-1.021c-0.39-0.34-0.78-0.66-1.181-0.979  c-0.359-0.291-0.72-0.57-1.09-0.84c-0.5-0.371-1.01-0.73-1.529-1.07c-0.351-0.23-0.711-0.461-1.08-0.68  c-0.48-0.301-0.971-0.58-1.461-0.851c-0.439-0.229-0.879-0.46-1.329-0.681c-0.061-0.029-0.12-0.06-0.181-0.09  c-0.359-0.17-0.72-0.34-1.08-0.5c-0.16-0.069-0.319-0.14-0.47-0.199c-0.37-0.16-0.739-0.311-1.11-0.45  c-0.489-0.19-0.979-0.36-1.479-0.53c-0.47-0.16-0.96-0.311-1.45-0.449c-0.02,0-0.04-0.011-0.05-0.011  c-0.42-0.12-0.84-0.229-1.271-0.33c-0.119-0.03-0.239-0.06-0.359-0.09c-0.09-0.021-0.18-0.04-0.27-0.06  c-0.28-0.07-0.561-0.131-0.851-0.18c-0.19-0.041-0.39-0.08-0.59-0.111c-0.021-0.01-0.04-0.01-0.07-0.01  c-0.409-0.08-0.83-0.14-1.25-0.199c-0.5-0.07-1.01-0.131-1.53-0.18c-0.05-0.011-0.1-0.011-0.149-0.021  c-0.45-0.04-0.92-0.07-1.38-0.091c-0.1-0.01-0.2-0.01-0.301-0.01c-0.5-0.029-1-0.039-1.5-0.039s-1,0.01-1.5,0.039  c-0.1,0-0.199,0-0.299,0.01c-0.461,0.021-0.931,0.051-1.381,0.091c-0.05,0.01-0.1,0.01-0.15,0.021  c-0.52,0.049-1.029,0.109-1.529,0.18c-0.45,0.06-0.891,0.129-1.33,0.209c0,0-0.01,0-0.02,0c-0.16,0.031-0.32,0.061-0.49,0.091  c-0.37,0.079-0.74,0.149-1.1,0.239c-0.121,0.021-0.24,0.051-0.36,0.08c-0.46,0.11-0.91,0.23-1.37,0.36  c-0.01,0-0.03,0.011-0.04,0.011c-0.431,0.119-0.87,0.26-1.3,0.399c-0.12,0.04-0.23,0.069-0.34,0.11  c-0.431,0.149-0.86,0.3-1.291,0.47c-0.369,0.14-0.739,0.29-1.109,0.45c-0.16,0.06-0.32,0.13-0.48,0.209  c-0.359,0.15-0.72,0.32-1.069,0.49c-1.021,0.49-2.011,1.03-2.98,1.621c-0.33,0.199-0.659,0.409-0.979,0.619  c-0.551,0.36-1.09,0.73-1.62,1.12c-0.78,0.58-1.54,1.19-2.271,1.83c-0.77,0.67-1.51,1.38-2.22,2.11c-0.75,0.779-1.46,1.6-2.13,2.439  c-0.29,0.36-0.561,0.711-0.83,1.08c-0.311,0.41-0.6,0.83-0.891,1.26c-0.289,0.44-0.569,0.881-0.85,1.32  c-0.26,0.43-0.51,0.87-0.75,1.311c-0.029,0.049-0.06,0.109-0.09,0.16c-0.22,0.399-0.43,0.799-0.63,1.209  c-0.17,0.351-0.34,0.711-0.51,1.07c-0.47,1.051-0.9,2.13-1.271,3.24c-0.16,0.449-0.3,0.91-0.43,1.369  c-0.03,0.101-0.061,0.191-0.08,0.291c-0.12,0.39-0.22,0.779-0.311,1.17c-0.109,0.449-0.209,0.91-0.31,1.359  c-0.05,0.26-0.1,0.521-0.14,0.771c-0.061,0.319-0.11,0.64-0.16,0.97c-0.02,0.07-0.03,0.15-0.04,0.221h-10.31V199.41z M301.32,172.32  v-29.79h24.42v117.49h-53.961v-82.7h24.541C299.09,177.32,301.32,175.08,301.32,172.32z M266.529,142.53h24.791v24.79h-19.541v-5.92  c0-2.76-2.229-5-5-5h-0.25V142.53z M232.12,142.53h24.409v13.87H232.12V142.53z M202.58,166.4h24.79v24.79h-24.79V166.4z   M168.16,166.4h24.42v29.79c0,2.76,2.24,5,5,5h34.79c2.76,0,5-2.24,5-5V166.4h24.409v93.62H168.16V166.4z M148.16,270.021h197.58v10  H148.16V270.021z M193.55,314.58c-0.13,0.19-0.26,0.39-0.39,0.59c-0.25,0.37-0.49,0.74-0.72,1.12c-0.301,0.5-0.591,1-0.87,1.51  c-0.24,0.45-0.471,0.9-0.7,1.36c-0.16,0.329-0.32,0.659-0.47,1c-0.11,0.239-0.221,0.489-0.32,0.739  c-0.39,0.891-0.73,1.801-1.04,2.73c-0.13,0.41-0.26,0.82-0.38,1.24c-0.01,0.02-0.021,0.029-0.01,0.04  c-0.03,0.079-0.051,0.149-0.07,0.22c-0.03,0.09-0.061,0.18-0.07,0.27c-0.109,0.381-0.21,0.761-0.3,1.141  c-0.28,1.141-0.5,2.3-0.66,3.48h-39.39v-40h197.58v40h-86.58c-0.021-0.131-0.041-0.261-0.061-0.391c-0.05-0.33-0.109-0.67-0.17-1  c-0.04-0.27-0.1-0.54-0.15-0.811c-0.119-0.609-0.26-1.219-0.42-1.819c-0.149-0.58-0.31-1.149-0.49-1.72  c-0.109-0.37-0.239-0.75-0.369-1.11c-0.12-0.36-0.25-0.72-0.391-1.069c-0.939-2.451-2.14-4.781-3.569-6.94  c-0.101-0.16-0.21-0.31-0.311-0.46c-0.159-0.23-0.329-0.471-0.489-0.69c-0.19-0.271-0.38-0.53-0.58-0.79  c-0.59-0.779-1.21-1.539-1.87-2.27c-0.21-0.24-0.42-0.471-0.64-0.7c-0.211-0.229-0.431-0.46-0.66-0.681  c-0.221-0.219-0.44-0.449-0.67-0.67c-1.271-1.209-2.631-2.33-4.061-3.35c-0.34-0.24-0.689-0.48-1.04-0.71  c-0.49-0.33-0.979-0.63-1.479-0.93c-0.28-0.16-0.551-0.32-0.83-0.47c-0.37-0.211-0.74-0.41-1.12-0.61  c-0.33-0.17-0.65-0.33-0.98-0.479c-2.97-1.42-6.159-2.431-9.51-2.98c-0.34-0.07-0.68-0.12-1.03-0.16  c-0.409-0.061-0.819-0.109-1.229-0.15c-0.3-0.029-0.61-0.06-0.91-0.08c-0.22-0.02-0.45-0.039-0.67-0.039  c-0.7-0.051-1.4-0.07-2.11-0.07s-1.41,0.02-2.109,0.07c-0.221,0-0.45,0.02-0.67,0.039c-0.301,0.021-0.61,0.051-0.91,0.08  c-0.41,0.041-0.82,0.09-1.23,0.15c-0.37,0.05-0.74,0.1-1.109,0.17c-0.811,0.13-1.601,0.29-2.391,0.48  c-0.42,0.1-0.84,0.209-1.25,0.33c-0.58,0.16-1.17,0.33-1.74,0.529c-0.34,0.11-0.68,0.23-1.01,0.35  c-0.97,0.361-1.93,0.761-2.87,1.201c-0.25,0.109-0.5,0.229-0.739,0.359c-0.29,0.141-0.58,0.28-0.86,0.43  c-0.26,0.15-0.52,0.291-0.78,0.44c-0.27,0.149-0.54,0.3-0.8,0.46c-0.27,0.16-0.53,0.32-0.79,0.49c-0.43,0.26-0.85,0.539-1.26,0.83  c-0.37,0.25-0.73,0.51-1.09,0.779c-0.311,0.23-0.62,0.471-0.92,0.721c-0.851,0.67-1.67,1.39-2.46,2.14  c-0.351,0.33-0.69,0.67-1.021,1.021c-0.33,0.35-0.66,0.699-0.97,1.06C195.35,312.13,194.41,313.33,193.55,314.58z M197.2,335.021  c0-14.42,11.729-26.15,26.149-26.15s26.15,11.73,26.15,26.15s-11.73,26.149-26.15,26.149S197.2,349.44,197.2,335.021z   M234.31,369.47c13.051-4.16,22.91-15.56,24.841-29.449H366.06c2.14,14.91,13.71,26.81,28.45,29.449H234.31z M400.699,360.021  c-13.789,0-25-11.221-25-25c0-13.791,11.211-25,25-25c13.78,0,25,11.209,25,25C425.699,348.8,414.479,360.021,400.699,360.021z" fill-opacity="1" data-original-color="#10467cff" stroke="none" stroke-opacity="1" style=""/></g></svg>