<svg id="Layer_1" viewBox="0 0 168 168" xmlns="http://www.w3.org/2000/svg" data-name="Layer 1" width="300" height="300" version="1.1" xmlns:xlink="http://www.w3.org/1999/xlink" xmlns:svgjs="http://svgjs.dev/svgjs"><g width="100%" height="100%" transform="matrix(1,0,0,1,0,0)"><path d="m131.18457 98.07845a2.98983 2.98983 0 0 0 -2.51855-1.37012h-5.66602a3.00328 3.00328 0 0 0 -3 3v7a3.00328 3.00328 0 0 0 3 3h10.19238a3.00029 3.00029 0 0 0 2.51953-4.62891zm-7.18457 7.62988v-5h4.12207l3.2334 5z" fill="#f6b801" fill-opacity="1" data-original-color="#0bceb2ff" stroke="none" stroke-opacity="1"/><path d="m58 102.70833a20 20 0 1 0 0-40h-29.667a2 2 0 1 0 0 4h17.71766a20.13168 20.13168 0 0 0 -4.83331 5.15918h-6.21735a2 2 0 0 0 0 4h4.23065a19.79341 19.79341 0 0 0 -1.12933 4.84082h-16.10132a2 2 0 0 0 0 4h16.10132a20.0264 20.0264 0 0 0 19.89868 18zm0-36a16 16 0 1 1 -16 16 16.01833 16.01833 0 0 1 16-16z" fill="#243c70" fill-opacity="1" data-original-color="#2d4356ff" stroke="none" stroke-opacity="1"/><path d="m58 74.70833a2.0001 2.0001 0 0 0 2-2v-2a2 2 0 0 0 -4 0v2a2.0001 2.0001 0 0 0 2 2z" fill="#f6b801" fill-opacity="1" data-original-color="#0bceb2ff" stroke="none" stroke-opacity="1"/><path d="m58 96.70833a2.0001 2.0001 0 0 0 2-2v-2a2 2 0 0 0 -4 0v2a2.0001 2.0001 0 0 0 2 2z" fill="#f6b801" fill-opacity="1" data-original-color="#0bceb2ff" stroke="none" stroke-opacity="1"/><path d="m68 84.70833h2a2 2 0 0 0 0-4h-2a2 2 0 0 0 0 4z" fill="#f6b801" fill-opacity="1" data-original-color="#0bceb2ff" stroke="none" stroke-opacity="1"/><path d="m50 82.70833a2.0001 2.0001 0 0 0 -2-2h-2a2 2 0 0 0 0 4h2a2.0001 2.0001 0 0 0 2-2z" fill="#f6b801" fill-opacity="1" data-original-color="#0bceb2ff" stroke="none" stroke-opacity="1"/><path d="m58 84.70833h4a2 2 0 1 0 0-4h-2v-1a2 2 0 0 0 -4 0v3a2.0001 2.0001 0 0 0 2 2z" fill="#243c70" fill-opacity="1" data-original-color="#2d4356ff" stroke="none" stroke-opacity="1"/><path d="m126 68.70833a2.0001 2.0001 0 0 0 -2-2h-32a2 2 0 0 0 0 4h32a2.0001 2.0001 0 0 0 2-2z" fill="#243c70" fill-opacity="1" data-original-color="#2d4356ff" stroke="none" stroke-opacity="1"/><path d="m115 78.70833h20a2 2 0 0 0 0-4h-20a2 2 0 0 0 0 4z" fill="#f6b801" fill-opacity="1" data-original-color="#0bceb2ff" stroke="none" stroke-opacity="1"/><g fill="#2d4356"><path d="m83.99175 28.45833a3 3 0 1 0 -3-3 3.00344 3.00344 0 0 0 3 3zm0-4.5a1.5 1.5 0 1 1 -1.5 1.5 1.50148 1.50148 0 0 1 1.5-1.5z" fill="#243c70" fill-opacity="1" data-original-color="#2d4356ff" stroke="none" stroke-opacity="1"/><path d="m36.65841 21.29167a2 2 0 1 0 2 2 2.00229 2.00229 0 0 0 -2-2zm0 3a1 1 0 1 1 1-1 1.001 1.001 0 0 1 -1 1z" fill="#243c70" fill-opacity="1" data-original-color="#2d4356ff" stroke="none" stroke-opacity="1"/><path d="m137.10423 22.125a2 2 0 1 0 2 2 2.00229 2.00229 0 0 0 -2-2zm0 3a1 1 0 1 1 1-1 1.001 1.001 0 0 1 -1 1z" fill="#243c70" fill-opacity="1" data-original-color="#2d4356ff" stroke="none" stroke-opacity="1"/><path d="m114.93756 34.44692a2 2 0 1 0 2 2 2.00229 2.00229 0 0 0 -2-2zm0 3a1 1 0 1 1 1-1 1.001 1.001 0 0 1 -1 1z" fill="#243c70" fill-opacity="1" data-original-color="#2d4356ff" stroke="none" stroke-opacity="1"/><path d="m32.75 47.20833a2 2 0 1 0 -2 2 2.00229 2.00229 0 0 0 2-2zm-3 0a1 1 0 1 1 1 1 1.001 1.001 0 0 1 -1-1z" fill="#243c70" fill-opacity="1" data-original-color="#2d4356ff" stroke="none" stroke-opacity="1"/></g><path d="m59.574 37.501 1.486-1.955-.938-.532-.955 2.19h-.032l-.969-2.175-.955.548 1.471 1.909v.031l-2.301-.297v1.063l2.316-.297v.032l-1.486 1.908.891.564 1.018-2.207h.031l.939 2.191.986-.563-1.502-1.878v-.031l2.362.281v-1.063l-2.362.312z" fill="#f6b801" fill-opacity="1" data-original-color="#0bceb2ff" stroke="none" stroke-opacity="1"/><path d="m7.967 34.743-.856 1.099.513.325.586-1.271h.018l.541 1.262.567-.325-.864-1.081v-.018l1.36.162v-.612l-1.36.18v-.018l.856-1.126-.541-.307-.55 1.261h-.018l-.558-1.252-.55.316.847 1.099v.018l-1.325-.171v.612l1.334-.171z" fill="#f6b801" fill-opacity="1" data-original-color="#0bceb2ff" stroke="none" stroke-opacity="1"/><path d="m142.553 60.426v-1.044l-2.317.307v-.031l1.458-1.918-.921-.521-.936 2.148h-.031l-.951-2.133-.937.537 1.443 1.872v.031l-2.257-.292v1.044l2.272-.291v.03l-1.458 1.872.874.553.999-2.164h.03l.921 2.148.967-.552-1.473-1.842v-.03z" fill="#f6b801" fill-opacity="1" data-original-color="#0bceb2ff" stroke="none" stroke-opacity="1"/><path d="m162.176 38.413 1.258-1.655-.794-.45-.807 1.853h-.027l-.821-1.84-.808.464 1.245 1.615v.026l-1.947-.251v.9l1.96-.251v.026l-1.258 1.615.754.477.862-1.867h.026l.794 1.853.834-.476-1.271-1.589v-.026l1.999.238v-.9l-1.999.264z" fill="#f6b801" fill-opacity="1" data-original-color="#0bceb2ff" stroke="none" stroke-opacity="1"/><circle cx="2" cy="130.708" fill="#243c70" r="2" fill-opacity="1" data-original-color="#2d4356ff" stroke="none" stroke-opacity="1"/><path d="m11 128.70833h-3a2 2 0 0 0 0 4h3a2 2 0 0 0 0-4z" fill="#243c70" fill-opacity="1" data-original-color="#2d4356ff" stroke="none" stroke-opacity="1"/><path d="m160 128.70833h-3a2 2 0 0 0 0 4h3a2 2 0 0 0 0-4z" fill="#243c70" fill-opacity="1" data-original-color="#2d4356ff" stroke="none" stroke-opacity="1"/><circle cx="166" cy="130.708" fill="#243c70" r="2" fill-opacity="1" data-original-color="#2d4356ff" stroke="none" stroke-opacity="1"/><path d="m118.15387 136.70833h-8.30774a2.00641 2.00641 0 0 0 0 4h8.30774a2.00641 2.00641 0 0 0 0-4z" fill="#f6b801" fill-opacity="1" data-original-color="#0bceb2ff" stroke="none" stroke-opacity="1"/><path d="m58.15387 136.70833h-8.30774a2.00641 2.00641 0 0 0 0 4h8.30774a2.00641 2.00641 0 0 0 0-4z" fill="#f6b801" fill-opacity="1" data-original-color="#0bceb2ff" stroke="none" stroke-opacity="1"/><path d="m104 136.70833h-40a2 2 0 0 0 0 4h15.94v2h-7.94a2 2 0 0 0 0 4h25a2 2 0 0 0 0-4h-8.94v-2h15.94a2 2 0 0 0 0-4z" fill="#f6b801" fill-opacity="1" data-original-color="#0bceb2ff" stroke="none" stroke-opacity="1"/><path d="m150.72131 128.70833h-13.80377a7.93958 7.93958 0 0 0 .81915-2h5.3092a4.97217 4.97217 0 0 0 4.95411-4.97851v-10.3125a6.98923 6.98923 0 0 0 -1.12109-3.7998l-11.04691-17.09376a3.95849 3.95849 0 0 0 -3.33594-1.81543h-16.51071a3.99021 3.99021 0 0 0 -3.98535 3.98535v22.01465h-3v-28a4.004 4.004 0 0 0 -4-4h-23a24.03989 24.03989 0 0 1 -.33972 4h23.33972v28h-13.52051a15.97814 15.97814 0 0 0 -24.959 0h-7.52049v-8.02539c-.332.01367-.66467.02539-1 .02539a24.09332 24.09332 0 0 1 -3-.19421v8.33618a3.99552 3.99552 0 0 0 -3 3.858v4a4.004 4.004 0 0 0 4 4h15.26331a7.93958 7.93958 0 0 0 .81915 2h-54.80377a2.017 2.017 0 1 0 0 4h133.44262a2.017 2.017 0 1 0 0-4zm-18.24866-36.0127 11.04688 17.09277a2.99629 2.99629 0 0 1 .48047 1.62892v10.3125a.96715.96715 0 0 1 -.9541.97852l-5.30762.00616a7.98807 7.98807 0 0 0 -15.48114.01782l-6.25714.00726v-8.03125h-.00415l-.01147-22zm-61.20935 30.0127h-15.2633l-.00293-4h12.56445l.59766-.85449a11.98307 11.98307 0 0 1 19.68164 0l.59766.85449h22.56152v4h-25.26331a7.988 7.988 0 0 0 -15.47339 0zm3.73669 2a4 4 0 1 1 4 4 4.004 4.004 0 0 1 -3.99999-4zm10.91754 4a7.93958 7.93958 0 0 0 .81915-2h35.52661a7.93958 7.93958 0 0 0 .81915 2zm40.08246-4a4 4 0 1 1 4 4 4.004 4.004 0 0 1 -3.99999-4z" fill="#243c70" fill-opacity="1" data-original-color="#2d4356ff" stroke="none" stroke-opacity="1"/></g></svg>